HIERARCHY
ROOT Hips
{
	OFFSET 0.000000 93.385445 0.000000
	CHANNELS 6 Xposition Yposition Zposition Xrotation Yrotation Zrotation
	JOINT RightUpLeg
	{
		OFFSET -8.267204 -0.002556 0.000284
		CHANNELS 6 Xposition Yposition Zposition Xrotation Yrotation Zrotation
		JOINT RightLeg
		{
			OFFSET 0.000000 -42.978920 0.000356
			CHANNELS 6 Xposition Yposition Zposition Xrotation Yrotation Zrotation
			JOINT RightFoot
			{
				OFFSET 0.000000 -41.964985 0.000601
				CHANNELS 6 Xposition Yposition Zposition Xrotation Yrotation Zrotation
				JOINT RightToeBase
				{
					OFFSET 0.000000 -6.852513 15.501974
					CHANNELS 6 Xposition Yposition Zposition Xrotation Yrotation Zrotation
					End Site
					{
						OFFSET 0.000000 0.000000 16.948986
					}
				}
			}
		}
	}
	JOINT LeftUpLeg
	{
		OFFSET 8.267204 -0.004822 0.000536
		CHANNELS 6 Xposition Yposition Zposition Xrotation Yrotation Zrotation
		JOINT LeftLeg
		{
			OFFSET 0.000000 -42.978920 0.000356
			CHANNELS 6 Xposition Yposition Zposition Xrotation Yrotation Zrotation
			JOINT LeftFoot
			{
				OFFSET 0.000000 -41.964985 0.000601
				CHANNELS 6 Xposition Yposition Zposition Xrotation Yrotation Zrotation
				JOINT LeftToeBase
				{
					OFFSET 0.000000 -6.852513 15.501974
					CHANNELS 6 Xposition Yposition Zposition Xrotation Yrotation Zrotation
					End Site
					{
						OFFSET 0.000000 0.000000 16.948986
					}
				}
			}
		}
	}
	JOINT Spine
	{
		OFFSET 0.000000 10.062492 -1.118055
		CHANNELS 6 Xposition Yposition Zposition Xrotation Yrotation Zrotation
		JOINT Spine1
		{
			OFFSET 0.000000 11.181747 0.000000
			CHANNELS 3 Xrotation Yrotation Zrotation
			JOINT Spine2
			{
				OFFSET 0.000000 10.208565 0.001507
				CHANNELS 6 Xposition Yposition Zposition Xrotation Yrotation Zrotation
				JOINT Spine3
				{
					OFFSET 0.000000 10.197166 0.001508
					CHANNELS 6 Xposition Yposition Zposition Xrotation Yrotation Zrotation
					JOINT LeftShoulder
					{
						OFFSET 3.104119 8.005707 0.000000
						CHANNELS 6 Xposition Yposition Zposition Xrotation Yrotation Zrotation
						JOINT LeftArm
						{
							OFFSET 14.462845 0.000000 0.000000
							CHANNELS 3 Xrotation Yrotation Zrotation
							JOINT LeftForeArm
							{
								OFFSET 30.948917 0.000000 0.000000
								CHANNELS 3 Xrotation Yrotation Zrotation
								JOINT LeftHand
								{
									OFFSET 25.302570 0.000000 0.000000
									CHANNELS 3 Xrotation Yrotation Zrotation
									End Site
									{
										OFFSET 25.302567 0.000000 0.000000
									}
								}
							}
						}
					}
					JOINT RightShoulder
					{
						OFFSET -3.104119 8.005707 0.000000
						CHANNELS 6 Xposition Yposition Zposition Xrotation Yrotation Zrotation
						JOINT RightArm
						{
							OFFSET -14.462845 0.000000 0.000000
							CHANNELS 3 Xrotation Yrotation Zrotation
							JOINT RightForeArm
							{
								OFFSET -30.948917 0.000000 0.000000
								CHANNELS 3 Xrotation Yrotation Zrotation
								JOINT RightHand
								{
									OFFSET -25.302570 0.000000 0.000000
									CHANNELS 3 Xrotation Yrotation Zrotation
									End Site
									{
										OFFSET -25.302567 0.000000 0.000000
									}
								}
							}
						}
					}
					JOINT Neck
					{
						OFFSET 0.000000 14.283447 0.000000
						CHANNELS 6 Xposition Yposition Zposition Xrotation Yrotation Zrotation
						JOINT Head
						{
							OFFSET 0.000000 9.493164 -0.003241
							CHANNELS 6 Xposition Yposition Zposition Xrotation Yrotation Zrotation
							End Site
							{
								OFFSET 0.000000 9.493164 0.000000
							}
						}
					}
				}
			}
		}
	}
}
MOTION
Frames: 6
Frame Time: 0.016667
19.113880 15.617584 -54.514492 -11.828518 -55.452827 45.004171 -8.267204 -0.002553 0.000285 -9.327798 -5.088024 23.297625 0.000000 -42.978924 0.000361 86.269121 1.537094 2.255224 -0.000003 -41.964996 0.000603 -10.147593 -8.867193 15.346160 -0.000001 -6.852513 15.501970 0.000000 0.000001 -0.000000 8.267202 -0.004819 0.000534 -12.824157 -1.765380 24.502701 0.000000 -42.978916 0.000351 59.831228 -0.802968 1.464419 -0.000000 -41.964985 0.000603 9.446276 -3.985879 20.660113 0.000000 -6.852513 15.501973 -0.000000 0.000001 -0.000001 0.000002 10.062503 -1.118054 9.941470 -7.691301 -2.418028 -1.385861 -3.223144 -1.572833 0.000005 10.208563 0.001511 4.434557 -3.222983 -1.573173 0.000002 10.197165 0.001512 9.174409 -2.515766 -0.952253 3.104114 8.005708 -0.000002 -8.948888 14.727990 -3.637261 20.377424 -9.375858 -29.445164 166.269959 -72.060313 101.801770 44.627384 -27.865384 91.313434 -3.104124 8.005704 0.000000 -14.567999 22.782934 7.501868 -12.686282 -17.196552 46.821503 94.159745 75.948411 -60.206232 31.858068 -8.800426 -12.511338 -0.000002 14.283455 -0.000003 17.368602 7.779088 -11.289871 -0.000007 9.493171 -0.003242 -2.206024 17.895323 -18.324440 
19.070972 15.585808 -54.508015 -11.771360 -55.508828 45.014604 -8.267205 -0.002555 0.000287 -9.209356 -5.278022 23.477519 -0.000001 -42.978928 0.000350 86.410629 1.607889 2.612977 -0.000001 -41.964985 0.000601 -10.299342 -8.707793 15.002311 0.000001 -6.852528 15.501973 -0.000000 0.000002 0.000000 8.267203 -0.004824 0.000538 -12.749774 -1.743646 24.548509 -0.000001 -42.978928 0.000356 59.784017 -0.823873 1.463491 0.000001 -41.964981 0.000601 9.450345 -3.982289 20.642606 0.000001 -6.852515 15.501975 0.000000 0.000001 0.000000 -0.000001 10.062501 -1.118054 9.905542 -7.717149 -2.406798 -1.401999 -3.235509 -1.569038 0.000007 10.208570 0.001511 4.418419 -3.235350 -1.569374 0.000001 10.197146 0.001513 9.162360 -2.524770 -0.948478 3.104125 8.005707 -0.000002 -8.837630 14.613053 -3.660930 20.399748 -9.205355 -29.533038 166.098070 -72.065435 101.643535 44.626424 -27.836098 91.293278 -3.104114 8.005710 -0.000005 -14.528075 22.816349 7.560400 -12.628490 -16.985635 46.849456 93.963787 75.852584 -60.077237 31.745118 -8.764818 -12.645141 0.000007 14.283452 -0.000002 17.523955 7.959059 -11.272461 0.000004 9.493146 -0.003225 -1.904816 18.195841 -18.261421 
19.015594 15.595230 -54.536560 -11.737785 -55.555232 45.021434 -8.267205 -0.002556 0.000284 -9.096739 -5.475634 23.901964 0.000000 -42.978920 0.000358 86.557000 1.568780 3.022285 -0.000002 -41.964970 0.000601 -10.462397 -8.653228 14.617421 -0.000002 -6.852504 15.501968 -0.000000 0.000001 0.000000 8.267205 -0.004815 0.000537 -12.667907 -1.730632 24.558823 -0.000000 -42.978920 0.000358 59.709227 -0.837205 1.459059 -0.000000 -41.964985 0.000600 9.477331 -3.971075 20.637219 -0.000001 -6.852515 15.501973 -0.000000 0.000000 0.000001 0.000001 10.062510 -1.118053 9.885397 -7.740570 -2.387404 -1.411284 -3.247234 -1.561747 -0.000008 10.208579 0.001506 4.409142 -3.247072 -1.562080 -0.000006 10.197165 0.001504 9.155435 -2.533045 -0.942165 3.104122 8.005705 0.000001 -8.762667 14.493658 -3.709804 20.425182 -9.052672 -29.634808 165.779497 -72.094873 101.345097 44.645576 -27.837051 91.288941 -3.104120 8.005713 -0.000004 -14.514010 22.848294 7.668868 -12.561859 -16.776014 46.851993 93.638642 75.709129 -59.843447 31.537517 -8.753734 -12.900860 0.000003 14.283468 -0.000003 17.707720 8.183099 -11.313326 -0.000008 9.493161 -0.003246 -1.532862 18.590100 -18.301034 
18.927689 15.710991 -54.658119 -11.777582 -55.574234 45.007613 -8.267209 -0.002556 0.000289 -8.975138 -5.679840 24.979836 -0.000001 -42.978912 0.000347 86.655573 1.191517 3.392248 -0.000002 -41.964989 0.000598 -10.615353 -8.930693 14.254281 -0.000002 -6.852518 15.501970 -0.000000 -0.000001 -0.000001 8.267200 -0.004825 0.000540 -12.570389 -1.741322 24.482238 0.000004 -42.978920 0.000359 59.570745 -0.829313 1.446274 0.000001 -41.964977 0.000600 9.561816 -3.943870 20.661807 0.000000 -6.852510 15.501975 -0.000000 0.000001 -0.000001 -0.000005 10.062501 -1.118050 9.904069 -7.771957 -2.348862 -1.403699 -3.263470 -1.547206 -0.000000 10.208580 0.001514 4.416721 -3.263307 -1.547549 0.000000 10.197166 0.001510 9.161149 -2.544153 -0.930233 3.104121 8.005709 0.000002 -8.743510 14.360418 -3.819842 20.344796 -8.905272 -29.785055 165.169287 -72.169029 100.655063 44.697926 -27.885822 91.368854 -3.104115 8.005707 0.000001 -14.535165 22.866083 7.877873 -12.595941 -16.617031 46.807785 93.103852 75.403410 -59.327781 31.080229 -8.792287 -13.469853 0.000005 14.283442 0.000003 17.936536 8.442423 -11.465909 -0.000001 9.493184 -0.003237 -1.045389 19.075026 -18.550377 
18.835327 15.882973 -54.804440 -11.843195 -55.582430 44.998355 -8.267202 -0.002559 0.000286 -8.865634 -5.869170 26.191289 -0.000000 -42.978920 0.000354 86.759221 0.713770 3.905813 -0.000001 -41.964985 0.000600 -10.801322 -9.189997 13.803747 0.000001 -6.852512 15.501969 -0.000000 0.000001 0.000001 8.267205 -0.004819 0.000537 -12.473732 -1.746871 24.359129 0.000001 -42.978924 0.000357 59.415051 -0.806855 1.429682 -0.000003 -41.964981 0.000601 9.661864 -3.912854 20.706241 -0.000001 -6.852529 15.501973 -0.000000 -0.000000 -0.000000 0.000001 10.062502 -1.118055 9.939623 -7.799934 -2.297346 -1.388872 -3.278947 -1.527031 0.000001 10.208561 0.001509 4.431546 -3.278792 -1.527368 -0.000005 10.197149 0.001505 9.172266 -2.554293 -0.914166 3.104118 8.005729 0.000006 -8.752256 14.240090 -3.958653 20.232784 -8.805044 -29.952306 164.408432 -72.273353 99.784071 44.770186 -27.956550 91.494489 -3.104121 8.005704 0.000003 -14.592921 22.898086 8.119282 -12.655864 -16.533991 46.701555 92.444712 75.128379 -58.641771 30.584689 -8.835564 -14.190276 -0.000003 14.283461 0.000007 18.171080 8.713585 -11.676505 0.000000 9.493179 -0.003228 -0.529469 19.596303 -18.910272 
18.750710 16.112434 -54.934441 -11.903273 -55.599311 45.023839 -8.267205 -0.002558 0.000285 -8.778269 -6.055757 27.220221 0.000000 -42.978920 0.000349 86.973826 0.256938 5.016331 -0.000001 -41.964985 0.000603 -11.115740 -9.001219 12.968966 0.000001 -6.852509 15.501969 -0.000000 0.000001 0.000000 8.267207 -0.004822 0.000536 -12.376893 -1.711812 24.190879 0.000001 -42.978924 0.000359 59.260320 -0.767393 1.409037 0.000005 -41.964989 0.000599 9.755280 -3.885325 20.776788 0.000001 -6.852505 15.501973 -0.000000 0.000001 0.000001 0.000001 10.062500 -1.118053 9.981223 -7.817529 -2.225390 -1.371737 -3.291188 -1.497295 -0.000005 10.208580 0.001508 4.448688 -3.291033 -1.497637 -0.000001 10.197165 0.001511 9.185057 -2.561358 -0.891222 3.104116 8.005713 0.000002 -8.756124 14.143356 -4.137711 20.092262 -8.768406 -30.151508 163.498528 -72.403803 98.732153 44.856731 -28.029594 91.658939 -3.104125 8.005703 -0.000006 -14.707597 22.987137 8.367278 -12.693792 -16.568828 46.475332 91.560031 75.051881 -57.681378 30.194122 -8.841862 -15.046352 -0.000008 14.283441 -0.000003 18.399261 8.994791 -11.927689 0.000001 9.493196 -0.003242 -0.011616 20.146553 -19.347554 
